HIERARCHY
ROOT root
{
	OFFSET 0.000000 0.000000 0.000000
	CHANNELS 6 Xposition Yposition Zposition Zrotation Yrotation Xrotation
	JOINT lhip
	{
		OFFSET 0.058581 -0.082280 -0.017664
		CHANNELS 3 Zrotation Yrotation Xrotation
		JOINT lknee
		{
			OFFSET 0.043451 -0.386469 0.008037
			CHANNELS 3 Zrotation Yrotation Xrotation
			JOINT lankle
			{
				OFFSET -0.014790 -0.426874 -0.037428
				CHANNELS 3 Zrotation Yrotation Xrotation
				JOINT ltoe
				{
					OFFSET 0.041054 -0.060286 0.122042
					CHANNELS 3 Zrotation Yrotation Xrotation
					End Site
					{
						OFFSET 0.000000 0.000000 0.000000
					}
				}
			}
		}
	}
	JOINT rhip
	{
		OFFSET -0.060310 -0.090513 -0.013543
		CHANNELS 3 Zrotation Yrotation Xrotation
		JOINT rknee
		{
			OFFSET -0.043257 -0.383688 -0.004843
			CHANNELS 3 Zrotation Yrotation Xrotation
			JOINT rankle
			{
				OFFSET 0.019056 -0.420046 -0.034562
				CHANNELS 3 Zrotation Yrotation Xrotation
				JOINT rtoe
				{
					OFFSET -0.034840 -0.062106 0.130323
					CHANNELS 3 Zrotation Yrotation Xrotation
					End Site
					{
						OFFSET 0.000000 0.000000 0.000000
					}
				}
			}
		}
	}
	JOINT lowerback
	{
		OFFSET 0.004439 0.124404 -0.038385
		CHANNELS 3 Zrotation Yrotation Xrotation
		JOINT upperback
		{
			OFFSET 0.004488 0.137956 0.026820
			CHANNELS 3 Zrotation Yrotation Xrotation
			JOINT chest
			{
				OFFSET -0.002265 0.056032 0.002855
				CHANNELS 3 Zrotation Yrotation Xrotation
				JOINT lowerneck
				{
					OFFSET -0.013390 0.211636 -0.033468
					CHANNELS 3 Zrotation Yrotation Xrotation
					JOINT upperneck
					{
						OFFSET 0.010113 0.088937 0.050410
						CHANNELS 3 Zrotation Yrotation Xrotation
						End Site
						{
							OFFSET 0.000000 0.000000 0.000000
						}
					}
				}
				JOINT lclavicle
				{
					OFFSET 0.071702 0.114000 -0.018898
					CHANNELS 3 Zrotation Yrotation Xrotation
					JOINT lshoulder
					{
						OFFSET 0.122921 0.045205 -0.019046
						CHANNELS 3 Zrotation Yrotation Xrotation
						JOINT lelbow
						{
							OFFSET 0.255332 -0.015649 -0.022946
							CHANNELS 3 Zrotation Yrotation Xrotation
							JOINT lwrist
							{
								OFFSET 0.265709 0.012698 -0.007375
								CHANNELS 3 Zrotation Yrotation Xrotation
								End Site
								{
									OFFSET 0.000000 0.000000 0.000000
								}
							}
						}
					}
				}
				JOINT rclavicle
				{
					OFFSET -0.082954 0.112472 -0.023707
					CHANNELS 3 Zrotation Yrotation Xrotation
					JOINT rshoulder
					{
						OFFSET -0.113228 0.046853 -0.008472
						CHANNELS 3 Zrotation Yrotation Xrotation
						JOINT relbow
						{
							OFFSET -0.260127 -0.014369 -0.031269
							CHANNELS 3 Zrotation Yrotation Xrotation
							JOINT rwrist
							{
								OFFSET -0.269108 0.006794 -0.006027
								CHANNELS 3 Zrotation Yrotation Xrotation
								End Site
								{
									OFFSET 0.000000 0.000000 0.000000
								}
							}
						}
					}
				}
			}
		}
	}
}
MOTION
Frames: 11
Frame Time: 0.033333
0.092319 0.616337 0.890822 58.220041 0.992821 89.241522 -1.726865 2.861716 6.328400 -12.470406 -4.155502 61.223070 -3.108841 5.659199 -20.837649 0.000000 -0.000000 0.000000 2.571815 12.949691 -46.517378 -4.587750 -8.737097 59.017585 -6.956973 -18.314257 -15.392751 0.000000 -0.000000 0.000000 -1.236722 -11.812329 37.706441 -0.509572 -6.598434 7.285866 -0.976646 -5.985956 4.606291 -9.974716 6.933852 15.770316 5.766174 13.751773 -7.780800 -10.972647 -25.577138 -2.687450 -26.304775 -27.344112 -1.467684 41.199199 -57.178360 -60.669776 21.605290 4.301142 -26.953958 11.239722 15.769388 -0.963277 57.260221 -2.403787 21.527594 -42.368264 76.158746 -26.566162 -0.438162 3.196134 0.030944 
0.100510 0.606537 0.894650 58.966180 0.843395 88.329449 -0.352176 1.563614 -0.203615 -12.360026 0.029960 73.743405 -2.960910 5.410452 -21.599647 0.000000 -0.000000 0.000000 3.565493 13.107483 -44.271841 -4.764389 -8.078249 58.817149 -7.550068 -19.688219 -16.036315 0.000000 -0.000000 0.000000 -1.807454 -10.447909 39.517171 0.313699 -7.455281 6.339197 -0.461282 -6.176661 4.276193 -9.886024 6.361087 15.532506 6.584217 13.863749 -5.541493 -10.986037 -26.847715 -1.521777 -24.079649 -26.756134 -3.019289 40.405326 -57.085255 -60.364105 22.040478 4.133666 -26.953851 11.479712 16.403842 -0.674883 56.581444 -2.952032 21.306682 -43.354761 76.235295 -27.283889 -0.523347 3.344470 -0.576033 
0.107627 0.596869 0.897898 59.450644 0.454549 86.564791 1.140443 -0.234740 -7.793699 -11.457066 4.800220 87.582031 -3.074508 4.555614 -23.326567 0.000000 -0.000000 0.000000 4.681663 13.078498 -41.232729 -5.140298 -7.319890 58.756725 -7.817094 -20.634740 -16.754355 0.000000 -0.000000 0.000000 -2.517144 -8.330450 42.021823 1.072712 -8.394217 5.721562 0.092655 -6.267997 4.031464 -9.920766 6.118619 16.158540 7.412656 13.406266 -4.127310 -10.432684 -28.323918 -0.705328 -21.864365 -26.465420 -4.594746 40.069516 -56.824785 -60.512562 22.529793 3.967178 -26.927187 11.485335 17.153451 -0.638575 56.004573 -3.341041 21.067091 -45.200735 76.331104 -28.574353 -0.820675 3.404538 -1.204767 
0.114697 0.586995 0.900430 59.615197 -0.279741 84.054298 2.719514 -2.309302 -16.013622 -9.765420 9.143086 100.365061 -3.064428 4.116453 -24.596608 0.000000 -0.000000 0.000000 5.769950 12.501426 -37.453555 -5.540460 -6.380560 58.870412 -7.796828 -21.022917 -17.678092 0.000000 -0.000000 0.000000 -3.262445 -5.609157 44.798882 1.659427 -9.418142 5.821284 0.635587 -6.152274 4.138768 -10.494817 6.152754 17.945514 8.158097 12.626230 -5.207082 -8.827621 -29.674323 -0.769810 -20.209249 -26.583782 -5.888490 40.208793 -56.666750 -60.738687 23.014543 4.314499 -27.423265 10.863855 17.875237 -1.224304 55.920743 -3.517406 20.773355 -47.738078 76.416963 -30.313538 -0.979914 3.263045 -1.700344 
0.122551 0.576591 0.902214 59.575927 -1.086067 81.099204 4.627226 -3.929984 -24.795504 -7.786593 12.187980 110.317554 -2.840576 3.594777 -25.258634 0.000000 -0.000000 0.000000 6.715622 11.016221 -33.205730 -5.828467 -5.499612 59.125623 -7.367390 -20.499469 -19.052310 0.000000 -0.000000 0.000000 -3.655558 -2.765880 47.546142 2.027201 -10.432734 6.591468 1.135488 -5.761969 4.493602 -11.561646 6.321309 20.829906 8.892510 11.934186 -8.539073 -6.518413 -30.816164 -1.771402 -19.264516 -26.937900 -6.796252 40.685881 -56.836708 -60.825816 23.450313 5.195323 -28.313047 9.677459 18.595232 -2.060866 56.169396 -3.596277 20.090553 -50.615304 76.704530 -32.428082 -1.166817 2.938758 -2.134685 
0.131929 0.565530 0.903041 59.290732 -1.590965 77.967245 6.783421 -4.456588 -33.513956 -6.414191 13.938650 115.912114 -2.356310 2.727748 -25.717994 0.000000 -0.000000 0.000000 7.379692 8.677054 -28.797985 -5.755720 -5.004385 59.545987 -6.667037 -19.022498 -21.011439 0.000000 -0.000000 0.000000 -3.429917 -0.330205 49.955003 2.140337 -11.285335 7.897991 1.485446 -5.156832 4.786468 -12.760407 6.456447 24.085054 9.653183 11.446833 -12.081852 -4.457847 -31.698633 -3.231495 -18.858407 -27.273694 -7.380799 41.309682 -57.223891 -60.752942 23.808807 6.288920 -29.091570 8.526109 19.392784 -2.509077 56.213577 -3.411778 18.852097 -52.449882 77.160278 -33.798498 -1.437850 2.708228 -2.357583 
0.142840 0.553582 0.903043 58.644187 -1.698824 74.765010 8.649874 -3.933073 -40.901767 -5.831082 14.763569 116.361917 -1.675437 2.171119 -26.122277 0.000000 -0.000000 0.000000 7.836011 5.916097 -24.324425 -5.275440 -4.819435 60.096639 -6.163454 -17.235966 -23.322930 0.000000 -0.000000 0.000000 -2.812398 1.494006 51.980456 1.960776 -11.854700 9.440550 1.692212 -4.446463 4.877106 -13.703646 6.621599 26.712119 10.390678 11.373892 -14.300390 -3.186918 -32.335390 -4.541466 -18.779154 -27.204761 -7.792999 41.827007 -57.830784 -60.484694 23.859665 7.261953 -29.927308 7.704855 20.348502 -2.372837 56.108997 -2.906700 17.212533 -51.931501 77.441941 -33.206092 -1.708038 2.718110 -2.319429 
0.154778 0.541430 0.902189 57.846593 -1.581370 71.949064 9.927948 -3.084921 -46.489252 -5.055992 14.894490 112.209759 -1.082014 2.874409 -26.179229 0.000000 -0.000000 0.000000 8.079345 3.330786 -20.262597 -4.679710 -4.774970 60.726556 -5.878664 -15.703562 -25.648386 0.000000 -0.000000 0.000000 -2.121385 2.777027 53.228729 1.696539 -12.161239 11.007281 1.872397 -3.732315 4.745495 -14.248060 6.961393 28.450240 10.929479 11.633294 -15.200851 -2.986729 -32.851739 -5.273817 -19.014417 -26.792424 -7.928595 42.081713 -58.452083 -60.153964 23.726198 7.979542 -30.566860 7.516566 21.293480 -1.792964 55.738799 -2.431255 15.595200 -50.031624 77.435983 -31.625073 -2.139930 2.867983 -2.053579 
0.167497 0.528813 0.901258 57.305959 -1.424405 69.899509 10.182237 -2.546802 -49.876610 -4.134631 14.637264 104.364727 -0.468379 4.280898 -25.772043 0.000000 -0.000000 0.000000 8.152119 1.290113 -16.794536 -4.139125 -4.751908 61.167801 -5.713678 -14.515821 -27.828761 0.000000 -0.000000 0.000000 -1.540482 3.672312 53.170452 1.515631 -12.389847 12.588508 2.045669 -3.168472 4.345422 -14.484118 7.218620 29.879032 11.184917 11.847545 -15.518311 -3.713890 -33.360159 -5.387650 -19.628027 -26.420581 -7.589239 41.107002 -58.451779 -58.975538 23.399207 8.489472 -30.855809 8.103144 22.083108 -0.793749 55.139255 -2.013867 14.378866 -47.162116 77.066078 -29.200719 -2.552278 3.068937 -1.621247 
0.181570 0.515677 0.901048 57.197751 -1.252614 68.188330 9.198908 -2.526594 -50.308941 -4.512402 14.056097 93.633940 0.095416 5.061892 -25.130432 0.000000 -0.000000 0.000000 7.996982 -0.367192 -13.460351 -3.561771 -4.890210 61.432949 -5.527672 -13.602430 -29.665955 0.000000 -0.000000 0.000000 -1.005354 4.127118 52.027600 1.324010 -12.639405 14.119881 2.066157 -2.844040 3.780092 -14.360169 7.375433 31.121584 11.128294 11.897698 -15.212381 -5.405099 -33.967928 -5.028610 -20.300918 -25.965919 -6.725714 38.450276 -57.720471 -56.783591 22.996830 8.586393 -30.555240 9.321682 22.669165 0.258256 54.517199 -1.842805 13.710419 -43.158880 76.439727 -25.792716 -2.672053 3.220024 -0.940101 
0.197381 0.501473 0.901505 57.386704 -1.060076 66.669998 7.435550 -2.782435 -47.959716 -5.417065 13.041324 81.328454 0.501312 6.143646 -24.529663 0.000000 -0.000000 0.000000 7.637702 -1.865691 -10.194675 -3.006405 -5.281332 61.627128 -5.252465 -12.860603 -31.276846 0.000000 -0.000000 0.000000 -0.566178 4.098456 49.906643 0.943748 -12.854466 15.271369 1.846337 -2.742628 3.280227 -13.834647 7.453864 31.757902 10.836623 11.807425 -13.990522 -7.975461 -34.498986 -4.250639 -21.004586 -25.375695 -5.565394 34.803348 -56.476508 -53.960238 22.452307 8.190815 -29.819297 10.901782 22.965522 1.270784 54.030835 -1.832603 13.572936 -37.557682 75.689810 -20.913861 -2.534528 3.386584 -0.278970 
